<svg width="16" height="11" viewBox="0 0 16 11" fill="none" xmlns="http://www.w3.org/2000/svg">
<path d="M10.6055 5.58183L15.9995 8.99182V2.02783L10.6055 5.58183Z" fill="#F67B10"/>
<path d="M0 2.02783V8.99182L5.39399 5.58183L0 2.02783Z" fill="#F67B10"/>
<path d="M15.0012 0H1.00125C0.50225 0 0.10625 0.372 0.03125 0.850999L8.00124 6.10199L15.9712 0.850999C15.8962 0.372 15.5002 0 15.0012 0Z" fill="#F67B10"/>
<path d="M9.68924 6.18606L8.27424 7.11806C8.19024 7.17306 8.09524 7.20006 7.99924 7.20006C7.90324 7.20006 7.80824 7.17306 7.72424 7.11806L6.30924 6.18506L0.03125 10.1561C0.10825 10.6311 0.502249 11.0001 0.999249 11.0001H14.9992C15.4962 11.0001 15.8902 10.6311 15.9672 10.1561L9.68924 6.18606Z" fill="#F67B10"/>
</svg>
