<svg width="300" height="300" viewBox="0 0 300 300" fill="none" xmlns="http://www.w3.org/2000/svg">
<rect width="300" height="300" fill="#081539"/>
<path fill-rule="evenodd" clip-rule="evenodd" d="M49.3416 152.389H75.901C77.7364 152.389 78.924 150.877 78.924 149.15C78.924 147.207 77.8443 145.803 75.901 145.803H49.3416V129.716C49.3416 127.881 50.0974 127.017 52.0407 127.017H79.4638C81.5151 127.017 82.5948 125.506 82.5948 123.562C82.5948 121.619 81.5151 120.215 79.4638 120.215H49.9894C44.4832 120.215 42 122.591 42 128.637V172.47C42 178.408 44.3752 180.784 49.9894 180.784H80.1116C82.1629 180.784 83.2426 179.272 83.2426 177.329C83.2426 175.385 82.1629 173.982 80.1116 173.982H52.2567C50.5292 173.982 49.3416 173.226 49.3416 171.499V152.389Z" fill="white"/>
<path fill-rule="evenodd" clip-rule="evenodd" d="M49.3416 152.389H75.901C77.7364 152.389 78.924 150.877 78.924 149.15C78.924 147.207 77.8443 145.803 75.901 145.803H49.3416V129.716C49.3416 127.881 50.0974 127.017 52.0407 127.017H79.4638C81.5151 127.017 82.5948 125.506 82.5948 123.562C82.5948 121.619 81.5151 120.215 79.4638 120.215H49.9894C44.4832 120.215 42 122.591 42 128.637V172.47C42 178.408 44.3752 180.784 49.9894 180.784H80.1116C82.1629 180.784 83.2426 179.272 83.2426 177.329C83.2426 175.385 82.1629 173.982 80.1116 173.982H52.2567C50.5292 173.982 49.3416 173.226 49.3416 171.499V152.389Z" fill="white" stroke="white" stroke-width="0.6501" stroke-miterlimit="3.8637"/>
<path fill-rule="evenodd" clip-rule="evenodd" d="M92.6346 172.579C92.6346 178.409 95.0098 180.784 100.516 180.784H129.99C132.042 180.784 133.121 179.056 133.121 177.221C133.121 175.278 131.934 173.874 129.99 173.874H102.783C101.056 173.874 99.9762 172.902 99.9762 171.175V123.67C99.9762 121.403 98.4647 120.432 96.3054 120.432C94.2541 120.432 92.6346 121.403 92.6346 123.778V172.579Z" fill="white"/>
<path fill-rule="evenodd" clip-rule="evenodd" d="M92.6346 172.579C92.6346 178.409 95.0098 180.784 100.516 180.784H129.99C132.042 180.784 133.121 179.056 133.121 177.221C133.121 175.278 131.934 173.874 129.99 173.874H102.783C101.056 173.874 99.9762 172.902 99.9762 171.175V123.67C99.9762 121.403 98.4647 120.432 96.3054 120.432C94.2541 120.432 92.6346 121.403 92.6346 123.778V172.579Z" fill="white" stroke="white" stroke-width="0.6501" stroke-miterlimit="3.8637"/>
<path fill-rule="evenodd" clip-rule="evenodd" d="M142.515 177.653V123.131C142.515 120.972 144.026 120 146.077 120C148.237 120 149.856 120.972 149.856 123.131V125.182H149.532C147.589 125.182 145.97 126.802 145.97 128.745C145.97 130.689 147.589 132.308 149.532 132.308H149.856V177.545C149.856 179.597 148.237 180.676 146.077 180.676C144.026 180.784 142.515 179.705 142.515 177.653Z" fill="white"/>
<path fill-rule="evenodd" clip-rule="evenodd" d="M142.515 177.653V123.131C142.515 120.972 144.026 120 146.077 120C148.237 120 149.856 120.972 149.856 123.131V125.182H149.532C147.589 125.182 145.97 126.802 145.97 128.745C145.97 130.689 147.589 132.308 149.532 132.308H149.856V177.545C149.856 179.597 148.237 180.676 146.077 180.676C144.026 180.784 142.515 179.705 142.515 177.653Z" fill="white" stroke="white" stroke-width="0.6501" stroke-miterlimit="3.8637"/>
<path fill-rule="evenodd" clip-rule="evenodd" d="M166.483 155.844H183.865C196.065 155.844 203.191 149.15 203.191 137.706C203.191 126.802 196.389 120.648 184.189 120.648H167.131C161.624 120.648 159.249 123.023 159.249 128.961V177.653C159.249 179.92 160.761 181 162.812 181C164.863 181 166.375 179.92 166.375 177.761V155.844H166.483ZM166.483 149.366V129.717C166.483 127.989 167.239 127.018 168.966 127.018H183.757C191.423 127.018 195.633 130.796 195.633 137.706C195.633 145.156 191.531 149.258 183.757 149.258H166.483V149.366Z" fill="white"/>
<path fill-rule="evenodd" clip-rule="evenodd" d="M166.483 155.844H183.865C196.065 155.844 203.191 149.15 203.191 137.706C203.191 126.802 196.389 120.648 184.189 120.648H167.131C161.624 120.648 159.249 123.023 159.249 128.961V177.653C159.249 179.92 160.761 181 162.812 181C164.863 181 166.375 179.92 166.375 177.761V155.844H166.483ZM166.483 149.366V129.717C166.483 127.989 167.239 127.018 168.966 127.018H183.757C191.423 127.018 195.633 130.796 195.633 137.706C195.633 145.156 191.531 149.258 183.757 149.258H166.483V149.366Z" fill="white" stroke="white" stroke-width="0.6501" stroke-miterlimit="3.8637"/>
<path fill-rule="evenodd" clip-rule="evenodd" d="M257.608 163.834C257.608 173.551 250.158 180.784 236.771 180.784L236.663 174.522C245.084 174.414 250.266 170.312 250.266 163.942C250.266 157.788 246.919 155.089 238.066 153.253L236.771 152.929V145.911L239.578 146.451C251.13 148.935 257.608 152.929 257.608 163.834Z" fill="#FF8E2A"/>
<path fill-rule="evenodd" clip-rule="evenodd" d="M236.66 120C249.4 120.324 253.826 127.342 255.446 132.632C255.554 132.956 255.662 133.388 255.662 133.712C255.662 135.331 254.366 136.411 252.855 136.735C252.531 136.843 251.991 136.843 251.559 136.843C250.156 136.843 248.86 136.195 248.212 134.683C247.025 130.581 244.11 126.586 236.552 126.262V120H236.66Z" fill="#FF8E2A" stroke="#FF8E2A" stroke-width="0.6911" stroke-miterlimit="3.8637"/>
<path fill-rule="evenodd" clip-rule="evenodd" d="M257.604 163.834C257.604 173.551 250.155 180.784 236.767 180.784L236.659 174.522C245.08 174.414 250.262 170.312 250.262 163.942C250.262 157.788 246.916 155.089 238.062 153.253L236.767 152.929V145.911L239.574 146.451C251.126 148.935 257.604 152.929 257.604 163.834Z" fill="#FF8E2A" stroke="#FF8E2A" stroke-width="0.6911" stroke-miterlimit="3.8637"/>
<path fill-rule="evenodd" clip-rule="evenodd" d="M232.772 180.784C217.657 180.028 214.418 171.715 212.69 165.885C212.583 165.561 212.583 165.237 212.583 164.913C212.583 163.294 213.878 162.106 215.39 161.782C215.821 161.674 216.253 161.674 216.685 161.674C218.089 161.674 219.492 162.322 220.032 163.942C221.328 168.692 223.595 173.874 232.88 174.522V180.784H232.772ZM232.34 145.372L232.772 145.48V152.497L230.397 151.958C219.168 149.582 213.986 145.372 213.986 135.547C213.986 127.881 219.492 120.432 232.772 120V126.262C224.891 126.694 221.328 130.796 221.328 135.547C221.328 140.945 223.919 143.752 232.34 145.372Z" fill="#FF8E2A"/>
<path fill-rule="evenodd" clip-rule="evenodd" d="M232.772 180.784C217.657 180.028 214.418 171.715 212.69 165.885C212.583 165.561 212.583 165.237 212.583 164.913C212.583 163.294 213.878 162.106 215.39 161.782C215.821 161.674 216.253 161.674 216.685 161.674C218.089 161.674 219.492 162.322 220.032 163.942C221.328 168.692 223.595 173.874 232.88 174.522V180.784H232.772ZM232.34 145.372L232.772 145.48V152.497L230.397 151.958C219.168 149.582 213.986 145.372 213.986 135.547C213.986 127.881 219.492 120.432 232.772 120V126.262C224.891 126.694 221.328 130.796 221.328 135.547C221.328 140.945 223.919 143.752 232.34 145.372Z" fill="white" stroke="white" stroke-width="0.6501" stroke-miterlimit="3.8637"/>
<rect x="2" y="2" width="296" height="296" stroke="#FF7700" stroke-width="4"/>
</svg>
