<svg width="62" height="12" viewBox="0 0 62 12" fill="none" xmlns="http://www.w3.org/2000/svg">
<path fill-rule="evenodd" clip-rule="evenodd" d="M10.6917 10.7056H8.32873V7.28875C8.32873 6.3944 7.95911 5.78385 7.1463 5.78385C6.5246 5.78385 6.17885 6.19586 6.01793 6.59293C5.95758 6.73546 5.96701 6.93399 5.96701 7.13253V10.7056H3.62603C3.62603 10.7056 3.6562 4.65299 3.62603 4.10281H5.96701V5.13906C6.10531 4.68597 6.85336 4.03933 8.04711 4.03933C9.52814 4.03933 10.6917 4.98907 10.6917 7.03418V10.7056L10.6917 10.7056ZM1.2585 3.2768H1.24341C0.489066 3.2768 0 2.77205 0 2.13225C0 1.48 0.503524 0.98584 1.27295 0.98584C2.04176 0.98584 2.51448 1.47876 2.52957 2.13038C2.52957 2.77018 2.04176 3.27679 1.2585 3.27679L1.2585 3.2768ZM0.26974 4.10295H2.35361V10.7057H0.26974V4.10295Z" fill="#F67B10"/>
<path d="M51.8823 10.5165L52.3475 8.7741L52.4 8.57733L52.3001 8.39985C51.9179 7.7208 51.7162 6.94911 51.7164 6.15708M51.8823 10.5165L56.07 1.68018C53.6827 1.6803 51.7174 3.67699 51.7164 6.15708M51.8823 10.5165L53.619 10.0494L53.8154 9.99657L53.9928 10.0958C54.6275 10.4506 55.3418 10.6376 56.0683 10.6379L51.8823 10.5165ZM51.7164 6.15708L51.2164 6.15694L51.7164 6.15708ZM59.1456 2.98873L59.1455 2.98868C58.3221 2.14328 57.232 1.68075 56.0702 1.68018L59.1456 2.98873ZM59.1456 2.98873C59.9698 3.83473 60.4246 4.95939 60.4241 6.16063L59.1456 2.98873ZM60.4241 6.16065C60.4231 8.64096 58.4575 10.6379 56.0705 10.6379H56.0705H56.0705H56.0704H56.0685L60.4241 6.16065Z" stroke="#F67B10"/>
<path d="M51 11.4042L51.7133 8.73273C51.2733 7.95084 51.0419 7.06391 51.0422 6.15526C51.0433 3.31266 53.2987 1 56.0702 1C57.4151 1.00058 58.6775 1.53748 59.6268 2.51196C60.576 3.48643 61.0986 4.78176 61.0981 6.15941C61.0969 9.00192 58.8412 11.3149 56.0702 11.3149C56.07 11.3149 56.0703 11.3149 56.0702 11.3149H56.068C55.2265 11.3146 54.3998 11.0981 53.6654 10.6873L51 11.4042ZM53.7888 9.75404L53.9415 9.84682C54.583 10.2373 55.3185 10.4438 56.0686 10.4442H56.0702C58.3735 10.4442 60.2481 8.52181 60.2491 6.15907C60.2495 5.01406 59.8153 3.93736 59.0263 3.12745C58.2372 2.31754 57.188 1.87126 56.0717 1.87076C53.7666 1.87076 51.892 3.79294 51.8911 6.15559C51.8908 6.96525 52.1116 7.75369 52.53 8.43601L52.6294 8.59817L52.2072 10.1794L53.7888 9.75404Z" fill="white"/>
<mask id="path-4-inside-1_220_1262" fill="white">
<path d="M51 11.4042L51.7133 8.73273C51.2733 7.95084 51.0419 7.06391 51.0422 6.15526C51.0433 3.31266 53.2987 1 56.0702 1C57.4151 1.00058 58.6775 1.53748 59.6268 2.51196C60.576 3.48643 61.0986 4.78176 61.0981 6.15941C61.0969 9.00192 58.8412 11.3149 56.0702 11.3149C56.07 11.3149 56.0703 11.3149 56.0702 11.3149H56.068C55.2265 11.3146 54.3998 11.0981 53.6654 10.6873L51 11.4042ZM53.7888 9.75404L53.9415 9.84682C54.583 10.2373 55.3185 10.4438 56.0686 10.4442H56.0702C58.3735 10.4442 60.2481 8.52181 60.2491 6.15907C60.2495 5.01406 59.8153 3.93736 59.0263 3.12745C58.2372 2.31754 57.188 1.87126 56.0717 1.87076C53.7666 1.87076 51.892 3.79294 51.8911 6.15559C51.8908 6.96525 52.1116 7.75369 52.53 8.43601L52.6294 8.59817L52.2072 10.1794L53.7888 9.75404Z"/>
</mask>
<path d="M51 11.4042L51.7133 8.73273C51.2733 7.95084 51.0419 7.06391 51.0422 6.15526C51.0433 3.31266 53.2987 1 56.0702 1C57.4151 1.00058 58.6775 1.53748 59.6268 2.51196C60.576 3.48643 61.0986 4.78176 61.0981 6.15941C61.0969 9.00192 58.8412 11.3149 56.0702 11.3149C56.07 11.3149 56.0703 11.3149 56.0702 11.3149H56.068C55.2265 11.3146 54.3998 11.0981 53.6654 10.6873L51 11.4042ZM53.7888 9.75404L53.9415 9.84682C54.583 10.2373 55.3185 10.4438 56.0686 10.4442H56.0702C58.3735 10.4442 60.2481 8.52181 60.2491 6.15907C60.2495 5.01406 59.8153 3.93736 59.0263 3.12745C58.2372 2.31754 57.188 1.87126 56.0717 1.87076C53.7666 1.87076 51.892 3.79294 51.8911 6.15559C51.8908 6.96525 52.1116 7.75369 52.53 8.43601L52.6294 8.59817L52.2072 10.1794L53.7888 9.75404Z" fill="white"/>
<path d="M51 11.4042L50.0338 11.1462L49.587 12.8198L51.2597 12.3699L51 11.4042ZM51.7133 8.73273L52.6794 8.99068L52.7845 8.59723L52.5848 8.24232L51.7133 8.73273ZM51.0422 6.15526L50.0422 6.15486V6.15491L51.0422 6.15526ZM56.0702 1L56.0706 0H56.0702V1ZM59.6268 2.51196L60.3431 1.81419L60.3431 1.81416L59.6268 2.51196ZM61.0981 6.15941L62.0981 6.15983V6.15976L61.0981 6.15941ZM56.068 11.3149L56.0676 12.3149H56.068V11.3149ZM53.6654 10.6873L54.1536 9.81458L53.7985 9.61597L53.4057 9.72164L53.6654 10.6873ZM53.7888 9.75404L54.3081 8.89942L53.9424 8.67723L53.5292 8.78835L53.7888 9.75404ZM53.9415 9.84682L54.4615 8.99263L54.4608 8.99219L53.9415 9.84682ZM56.0686 10.4442L56.068 11.4442H56.0686V10.4442ZM60.2491 6.15907L61.2491 6.15949V6.15943L60.2491 6.15907ZM59.0263 3.12745L59.7426 2.42964L59.7425 2.42961L59.0263 3.12745ZM56.0717 1.87076L56.0722 0.870762H56.0717V1.87076ZM51.8911 6.15559L52.8911 6.15599V6.15597L51.8911 6.15559ZM52.53 8.43601L53.3825 7.91331L53.3825 7.91326L52.53 8.43601ZM52.6294 8.59817L53.5956 8.85619L53.7063 8.44145L53.482 8.07548L52.6294 8.59817ZM52.2072 10.1794L51.241 9.92133L50.7941 11.5948L52.4668 11.145L52.2072 10.1794ZM51.9662 11.6622L52.6794 8.99068L50.7471 8.47477L50.0338 11.1462L51.9662 11.6622ZM52.5848 8.24232C52.2299 7.61176 52.0419 6.89409 52.0422 6.15562L50.0422 6.15491C50.0418 7.23374 50.3167 8.28992 50.8418 9.22313L52.5848 8.24232ZM52.0422 6.15566C52.0431 3.84108 53.8747 2 56.0702 2V0C52.7228 0 50.0435 2.78424 50.0422 6.15486L52.0422 6.15566ZM56.0698 2C57.1414 2.00046 58.1467 2.42574 58.9105 3.20975L60.3431 1.81416C59.2082 0.649224 57.6888 0.000698388 56.0706 1.19209e-07L56.0698 2ZM58.9104 3.20972C59.6752 3.99479 60.0985 5.03855 60.0981 6.15905L62.0981 6.15976C62.0987 4.52496 61.4768 2.97808 60.3431 1.81419L58.9104 3.20972ZM60.0981 6.15898C60.0971 8.47355 58.2652 10.3149 56.0702 10.3149V12.3149C59.4171 12.3149 62.0967 9.53029 62.0981 6.15983L60.0981 6.15898ZM56.0702 10.3149C56.0702 10.3149 56.0702 10.3149 56.0702 10.3149C56.0702 10.3149 56.0702 10.3149 56.0702 10.3149C56.0702 10.3149 56.0702 10.3149 56.0702 10.3149H56.0702C56.0702 10.3149 56.0702 10.3149 56.0702 10.3149C56.0702 10.3149 56.0702 10.3149 56.0702 10.3149C56.0702 10.3149 56.0702 10.3149 56.0702 10.3149C56.0702 10.3149 56.0702 10.3149 56.0702 10.3149C56.0702 10.3149 56.0702 10.3149 56.0702 10.3149C56.0702 10.3149 56.0702 10.3149 56.0702 10.3149H56.0702C56.0702 10.3149 56.0702 10.3149 56.0702 10.3149C56.0702 10.3149 56.0702 10.3149 56.0702 10.3149C56.0702 10.3149 56.0702 10.3149 56.0702 10.3149H56.0702C56.0702 10.3149 56.0702 10.3149 56.0702 10.3149C56.0702 10.3149 56.0702 10.3149 56.0702 10.3149H56.0702C56.0702 10.3149 56.0702 10.3149 56.0702 10.3149C56.0702 10.3149 56.0702 10.3149 56.0702 10.3149H56.0702C56.0702 10.3149 56.0702 10.3149 56.0702 10.3149H56.0702C56.0702 10.3149 56.0702 10.3149 56.0702 10.3149H56.0702C56.0702 10.3149 56.0702 10.3149 56.0702 10.3149H56.0702C56.0702 10.3149 56.0702 10.3149 56.0702 10.3149H56.0702C56.0702 10.3149 56.0702 10.3149 56.0702 10.3149H56.0702C56.0702 10.3149 56.0702 10.3149 56.0702 10.3149H56.0702C56.0702 10.3149 56.0702 10.3149 56.0702 10.3149C56.0702 10.3149 56.0702 10.3149 56.0702 10.3149H56.0702C56.0702 10.3149 56.0702 10.3149 56.0702 10.3149C56.0702 10.3149 56.0702 10.3149 56.0702 10.3149H56.0702C56.0702 10.3149 56.0702 10.3149 56.0702 10.3149C56.0702 10.3149 56.0702 10.3149 56.0702 10.3149C56.0702 10.3149 56.0702 10.3149 56.0702 10.3149H56.0702H56.0702C56.0702 10.3149 56.0702 10.3149 56.0702 10.3149C56.0702 10.3149 56.0702 10.3149 56.0702 10.3149C56.0702 10.3149 56.0702 10.3149 56.0702 10.3149H56.0702H56.0702H56.0702C56.0702 10.3149 56.0702 10.3149 56.0702 10.3149C56.0702 10.3149 56.0702 10.3149 56.0702 10.3149C56.0702 10.3149 56.0702 10.3149 56.0702 10.3149C56.0702 10.3149 56.0702 10.3149 56.0702 10.3149C56.0702 10.3149 56.0702 10.3149 56.0702 10.3149C56.0702 10.3149 56.0702 10.3149 56.0702 10.3149C56.0702 10.3149 56.0702 10.3149 56.0702 10.3149C56.0701 10.3149 56.0701 10.3149 56.0701 10.3149C56.0701 10.3149 56.0701 10.3149 56.0701 10.3149C56.0701 10.3149 56.0701 10.3149 56.0701 10.3149C56.0701 10.3149 56.0701 10.3149 56.0701 10.3149C56.0701 10.3149 56.0701 10.3149 56.0701 10.3149H56.0701H56.0701H56.0701C56.0701 10.3149 56.0701 10.3149 56.0701 10.3149C56.0701 10.3149 56.0701 10.3149 56.0701 10.3149C56.0701 10.3149 56.0701 10.3149 56.0701 10.3149H56.0701C56.0701 10.3149 56.0701 10.3149 56.0701 10.3149C56.0701 10.3149 56.0701 10.3149 56.0701 10.3149H56.0701C56.0701 10.3149 56.0701 10.3149 56.0701 10.3149C56.0701 10.3149 56.0701 10.3149 56.0701 10.3149C56.0701 10.3149 56.0701 10.3149 56.0701 10.3149C56.0701 10.3149 56.0701 10.3149 56.0701 10.3149C56.0701 10.3149 56.0701 10.3149 56.0701 10.3149H56.0701C56.0701 10.3149 56.0701 10.3149 56.0701 10.3149C56.0701 10.3149 56.0701 10.3149 56.0701 10.3149C56.0701 10.3149 56.0701 10.3149 56.0701 10.3149H56.0701H56.0701C56.0701 10.3149 56.0701 10.3149 56.0701 10.3149C56.0701 10.3149 56.0701 10.3149 56.0701 10.3149H56.0701C56.0701 10.3149 56.0701 10.3149 56.0701 10.3149C56.0701 10.3149 56.0701 10.3149 56.0701 10.3149C56.0701 10.3149 56.0701 10.3149 56.0701 10.3149C56.0701 10.3149 56.0701 10.3149 56.0701 10.3149C56.0701 10.3149 56.0701 10.3149 56.0701 10.3149H56.0701C56.0701 10.3149 56.0701 11.3149 56.0701 12.3149H56.0701C56.0701 12.3149 56.0701 12.3149 56.0701 12.3149C56.0701 12.3149 56.0701 12.3149 56.0701 12.3149C56.0701 12.3149 56.0701 12.3149 56.0701 12.3149C56.0701 12.3149 56.0701 12.3149 56.0701 12.3149C56.0701 12.3149 56.0701 12.3149 56.0701 12.3149C56.0701 12.3149 56.0701 12.3149 56.0701 12.3149C56.0701 12.3149 56.0701 12.3149 56.0701 12.3149C56.0701 12.3149 56.0701 12.3149 56.0701 12.3149H56.0701C56.0701 12.3149 56.0701 12.3149 56.0701 12.3149C56.0701 12.3149 56.0701 12.3149 56.0701 12.3149H56.0701C56.0701 12.3149 56.0701 12.3149 56.0701 12.3149C56.0701 12.3149 56.0701 12.3149 56.0701 12.3149C56.0701 12.3149 56.0701 12.3149 56.0701 12.3149C56.0701 12.3149 56.0701 12.3149 56.0701 12.3149C56.0701 12.3149 56.0701 12.3149 56.0701 12.3149C56.0701 12.3149 56.0701 12.3149 56.0701 12.3149C56.0701 12.3149 56.0701 12.3149 56.0701 12.3149C56.0701 12.3149 56.0701 12.3149 56.0701 12.3149H56.0701C56.0701 12.3149 56.0701 12.3149 56.0701 12.3149C56.0701 12.3149 56.0701 12.3149 56.0701 12.3149C56.0701 12.3149 56.0701 12.3149 56.0701 12.3149H56.0701C56.0701 12.3149 56.0701 12.3149 56.0701 12.3149C56.0701 12.3149 56.0701 12.3149 56.0701 12.3149H56.0701C56.0701 12.3149 56.0701 12.3149 56.0701 12.3149H56.0701C56.0701 12.3149 56.0701 12.3149 56.0701 12.3149C56.0701 12.3149 56.0701 12.3149 56.0701 12.3149H56.0701C56.0701 12.3149 56.0701 12.3149 56.0702 12.3149H56.0702C56.0702 12.3149 56.0702 12.3149 56.0702 12.3149H56.0702C56.0702 12.3149 56.0702 12.3149 56.0702 12.3149H56.0702C56.0702 12.3149 56.0702 12.3149 56.0702 12.3149C56.0702 12.3149 56.0702 12.3149 56.0702 12.3149C56.0702 12.3149 56.0702 12.3149 56.0702 12.3149C56.0702 12.3149 56.0702 12.3149 56.0702 12.3149H56.0702C56.0702 12.3149 56.0702 12.3149 56.0702 12.3149H56.0702C56.0702 12.3149 56.0702 12.3149 56.0702 12.3149C56.0702 12.3149 56.0702 12.3149 56.0702 12.3149H56.0702C56.0702 12.3149 56.0702 12.3149 56.0702 12.3149C56.0702 12.3149 56.0702 12.3149 56.0702 12.3149H56.0702C56.0702 12.3149 56.0702 12.3149 56.0702 12.3149C56.0702 12.3149 56.0702 12.3149 56.0702 12.3149C56.0702 12.3149 56.0702 12.3149 56.0702 12.3149C56.0702 12.3149 56.0702 12.3149 56.0702 12.3149H56.0702C56.0702 12.3149 56.0702 12.3149 56.0702 12.3149C56.0702 12.3149 56.0702 12.3149 56.0702 12.3149H56.0702H56.0702C56.0702 12.3149 56.0702 12.3149 56.0702 12.3149C56.0702 12.3149 56.0702 12.3149 56.0702 12.3149H56.0702C56.0702 12.3149 56.0702 12.3149 56.0702 12.3149C56.0702 12.3149 56.0702 12.3149 56.0702 12.3149H56.0702C56.0702 12.3149 56.0702 12.3149 56.0702 12.3149C56.0702 12.3149 56.0702 12.3149 56.0702 12.3149H56.0702C56.0702 12.3149 56.0702 12.3149 56.0702 12.3149C56.0702 12.3149 56.0702 12.3149 56.0702 12.3149C56.0702 12.3149 56.0702 12.3149 56.0702 12.3149H56.0702C56.0702 12.3149 56.0702 12.3149 56.0702 12.3149C56.0702 12.3149 56.0702 12.3149 56.0702 12.3149H56.0702C56.0702 12.3149 56.0702 12.3149 56.0702 12.3149C56.0702 12.3149 56.0702 12.3149 56.0702 12.3149H56.0702C56.0702 12.3149 56.0702 12.3149 56.0702 12.3149C56.0702 12.3149 56.0702 12.3149 56.0702 12.3149C56.0702 12.3149 56.0702 12.3149 56.0702 12.3149H56.0702C56.0702 12.3149 56.0702 12.3149 56.0702 12.3149C56.0702 12.3149 56.0702 12.3149 56.0702 12.3149H56.0702C56.0702 12.3149 56.0702 12.3149 56.0702 12.3149C56.0702 12.3149 56.0702 12.3149 56.0702 12.3149H56.0702C56.0702 12.3149 56.0702 12.3149 56.0702 12.3149C56.0702 12.3149 56.0702 12.3149 56.0702 12.3149H56.0702C56.0702 12.3149 56.0702 12.3149 56.0702 12.3149C56.0702 12.3149 56.0702 12.3149 56.0702 12.3149C56.0702 12.3149 56.0702 12.3149 56.0702 12.3149H56.0702C56.0702 12.3149 56.0702 12.3149 56.0702 12.3149H56.0702C56.0702 12.3149 56.0702 12.3149 56.0702 12.3149C56.0702 12.3149 56.0702 12.3149 56.0702 12.3149H56.0702C56.0702 12.3149 56.0702 12.3149 56.0702 12.3149C56.0702 12.3149 56.0702 12.3149 56.0702 12.3149H56.0702C56.0702 12.3149 56.0702 12.3149 56.0702 12.3149C56.0702 12.3149 56.0702 12.3149 56.0702 12.3149C56.0702 12.3149 56.0702 12.3149 56.0702 12.3149C56.0702 12.3149 56.0702 12.3149 56.0702 12.3149H56.0702C56.0702 12.3149 56.0702 12.3149 56.0702 12.3149C56.0702 12.3149 56.0702 12.3149 56.0702 12.3149C56.0702 12.3149 56.0702 12.3149 56.0702 12.3149C56.0702 12.3149 56.0702 12.3149 56.0702 12.3149C56.0702 12.3149 56.0702 12.3149 56.0702 12.3149C56.0702 12.3149 56.0702 12.3149 56.0702 12.3149H56.0702C56.0702 12.3149 56.0702 12.3149 56.0702 12.3149H56.0702C56.0702 12.3149 56.0702 12.3149 56.0702 12.3149C56.0702 12.3149 56.0702 12.3149 56.0702 12.3149C56.0702 12.3149 56.0702 12.3149 56.0702 12.3149C56.0702 12.3149 56.0702 12.3149 56.0702 12.3149H56.0702C56.0702 12.3149 56.0702 12.3149 56.0702 12.3149H56.0702C56.0702 12.3149 56.0702 12.3149 56.0702 12.3149C56.0702 12.3149 56.0702 12.3149 56.0702 12.3149H56.0702C56.0702 12.3149 56.0702 12.3149 56.0702 12.3149C56.0702 12.3149 56.0702 12.3149 56.0702 12.3149C56.0702 12.3149 56.0702 12.3149 56.0702 12.3149H56.0702H56.0702C56.0702 12.3149 56.0702 12.3149 56.0702 12.3149C56.0702 12.3149 56.0702 12.3149 56.0702 12.3149C56.0702 12.3149 56.0702 12.3149 56.0702 12.3149C56.0702 12.3149 56.0702 12.3149 56.0702 12.3149C56.0702 12.3149 56.0702 12.3149 56.0702 12.3149C56.0702 12.3149 56.0702 12.3149 56.0702 12.3149C56.0702 12.3149 56.0702 12.3149 56.0702 12.3149H56.0702C56.0702 12.3149 56.0702 12.3149 56.0702 12.3149C56.0702 12.3149 56.0702 12.3149 56.0702 12.3149C56.0702 12.3149 56.0702 12.3149 56.0702 12.3149C56.0702 12.3149 56.0702 12.3149 56.0702 12.3149C56.0702 12.3149 56.0702 12.3149 56.0702 12.3149C56.0702 12.3149 56.0702 12.3149 56.0702 12.3149C56.0702 12.3149 56.0702 12.3149 56.0702 12.3149H56.0702C56.0702 12.3149 56.0702 12.3149 56.0702 12.3149H56.0702C56.0702 12.3149 56.0702 12.3149 56.0702 12.3149C56.0702 12.3149 56.0702 12.3149 56.0702 12.3149C56.0702 12.3149 56.0702 11.3149 56.0702 10.3149H56.0702H56.0702H56.0702C56.0702 10.3149 56.0702 10.3149 56.0702 10.3149H56.0702H56.0702C56.0702 10.3149 56.0702 10.3149 56.0702 10.3149H56.0702C56.0702 10.3149 56.0702 10.3149 56.0702 10.3149C56.0702 10.3149 56.0702 10.3149 56.0702 10.3149C56.0702 10.3149 56.0702 10.3149 56.0702 10.3149C56.0702 10.3149 56.0702 10.3149 56.0702 10.3149C56.0702 10.3149 56.0702 10.3149 56.0702 10.3149H56.0702C56.0702 10.3149 56.0702 10.3149 56.0702 10.3149C56.0702 10.3149 56.0702 10.3149 56.0702 10.3149H56.0702C56.0702 10.3149 56.0702 10.3149 56.0702 10.3149H56.0702C56.0702 10.3149 56.0702 10.3149 56.0702 10.3149C56.0702 10.3149 56.0702 10.3149 56.0702 10.3149C56.0702 10.3149 56.0702 10.3149 56.0702 10.3149C56.0702 10.3149 56.0702 10.3149 56.0702 10.3149C56.0702 10.3149 56.0702 10.3149 56.0702 10.3149H56.0702C56.0702 10.3149 56.0702 10.3149 56.0702 10.3149C56.0702 10.3149 56.0702 10.3149 56.0702 10.3149C56.0702 10.3149 56.0702 10.3149 56.0702 10.3149C56.0702 10.3149 56.0702 10.3149 56.0702 10.3149H56.0702H56.0702H56.0702C56.0702 10.3149 56.0702 10.3149 56.0702 10.3149C56.0702 10.3149 56.0702 10.3149 56.0702 10.3149C56.0702 10.3149 56.0702 10.3149 56.0702 10.3149C56.0702 10.3149 56.0702 10.3149 56.0702 10.3149V12.3149C56.0702 12.3149 56.0702 12.3149 56.0702 12.3149C56.0702 12.3149 56.0702 12.3149 56.0702 12.3149C56.0702 12.3149 56.0702 12.3149 56.0702 12.3149C56.0702 12.3149 56.0702 12.3149 56.0702 12.3149H56.0702H56.0702H56.0702C56.0702 12.3149 56.0702 12.3149 56.0702 12.3149C56.0702 12.3149 56.0702 12.3149 56.0702 12.3149C56.0702 12.3149 56.0702 12.3149 56.0702 12.3149C56.0702 12.3149 56.0702 12.3149 56.0702 12.3149H56.0702C56.0702 12.3149 56.0702 12.3149 56.0702 12.3149C56.0702 12.3149 56.0702 12.3149 56.0702 12.3149C56.0702 12.3149 56.0702 12.3149 56.0702 12.3149C56.0702 12.3149 56.0702 12.3149 56.0702 12.3149C56.0702 12.3149 56.0702 12.3149 56.0702 12.3149H56.0702C56.0702 12.3149 56.0702 12.3149 56.0702 12.3149H56.0702C56.0702 12.3149 56.0702 12.3149 56.0702 12.3149C56.0702 12.3149 56.0702 12.3149 56.0702 12.3149H56.0702C56.0702 12.3149 56.0702 12.3149 56.0702 12.3149C56.0702 12.3149 56.0702 12.3149 56.0702 12.3149C56.0702 12.3149 56.0702 12.3149 56.0702 12.3149C56.0702 12.3149 56.0702 12.3149 56.0702 12.3149C56.0702 12.3149 56.0702 12.3149 56.0702 12.3149H56.0702C56.0702 12.3149 56.0702 12.3149 56.0702 12.3149H56.0702H56.0702C56.0702 12.3149 56.0702 12.3149 56.0702 12.3149H56.0702H56.0702H56.0702C56.0702 11.3149 56.0702 10.3149 56.0702 10.3149C56.0702 10.3149 56.0702 10.3149 56.0702 10.3149C56.0702 10.3149 56.0702 10.3149 56.0702 10.3149H56.0702C56.0702 10.3149 56.0702 10.3149 56.0702 10.3149H56.0702C56.0702 10.3149 56.0702 10.3149 56.0702 10.3149C56.0702 10.3149 56.0702 10.3149 56.0702 10.3149C56.0702 10.3149 56.0702 10.3149 56.0702 10.3149C56.0702 10.3149 56.0702 10.3149 56.0702 10.3149C56.0702 10.3149 56.0702 10.3149 56.0702 10.3149C56.0702 10.3149 56.0702 10.3149 56.0702 10.3149C56.0702 10.3149 56.0702 10.3149 56.0702 10.3149H56.0702C56.0702 10.3149 56.0702 10.3149 56.0702 10.3149C56.0702 10.3149 56.0702 10.3149 56.0702 10.3149C56.0702 10.3149 56.0702 10.3149 56.0702 10.3149C56.0702 10.3149 56.0702 10.3149 56.0702 10.3149C56.0702 10.3149 56.0702 10.3149 56.0702 10.3149C56.0702 10.3149 56.0702 10.3149 56.0702 10.3149C56.0702 10.3149 56.0702 10.3149 56.0702 10.3149H56.0702H56.0702C56.0702 10.3149 56.0702 10.3149 56.0702 10.3149C56.0702 10.3149 56.0702 10.3149 56.0702 10.3149C56.0702 10.3149 56.0702 10.3149 56.0702 10.3149H56.0702C56.0702 10.3149 56.0702 10.3149 56.0702 10.3149C56.0702 10.3149 56.0702 10.3149 56.0702 10.3149H56.0702C56.0702 10.3149 56.0702 10.3149 56.0702 10.3149H56.0702C56.0702 10.3149 56.0702 10.3149 56.0702 10.3149C56.0702 10.3149 56.0702 10.3149 56.0702 10.3149C56.0702 10.3149 56.0702 10.3149 56.0702 10.3149C56.0702 10.3149 56.0702 10.3149 56.0702 10.3149H56.0702C56.0702 10.3149 56.0702 10.3149 56.0702 10.3149H56.0702C56.0702 10.3149 56.0702 10.3149 56.0702 10.3149C56.0702 10.3149 56.0702 10.3149 56.0702 10.3149C56.0702 10.3149 56.0702 10.3149 56.0702 10.3149C56.0702 10.3149 56.0702 10.3149 56.0702 10.3149C56.0702 10.3149 56.0702 10.3149 56.0702 10.3149C56.0702 10.3149 56.0702 10.3149 56.0702 10.3149H56.0702C56.0702 10.3149 56.0702 10.3149 56.0702 10.3149C56.0702 10.3149 56.0702 10.3149 56.0702 10.3149C56.0702 10.3149 56.0702 10.3149 56.0702 10.3149C56.0702 10.3149 56.0702 10.3149 56.0702 10.3149H56.0702C56.0702 10.3149 56.0702 10.3149 56.0702 10.3149C56.0702 10.3149 56.0702 10.3149 56.0702 10.3149H56.0702C56.0702 10.3149 56.0702 10.3149 56.0702 10.3149C56.0702 10.3149 56.0702 10.3149 56.0702 10.3149H56.0702C56.0702 10.3149 56.0702 10.3149 56.0702 10.3149H56.0702C56.0702 10.3149 56.0702 10.3149 56.0702 10.3149C56.0702 10.3149 56.0702 10.3149 56.0702 10.3149C56.0702 10.3149 56.0702 10.3149 56.0702 10.3149H56.0702C56.0702 10.3149 56.0702 10.3149 56.0702 10.3149C56.0702 10.3149 56.0702 10.3149 56.0702 10.3149H56.0702C56.0702 10.3149 56.0702 10.3149 56.0702 10.3149C56.0702 10.3149 56.0702 10.3149 56.0702 10.3149H56.0702C56.0702 10.3149 56.0702 10.3149 56.0702 10.3149C56.0702 10.3149 56.0702 10.3149 56.0702 10.3149H56.0702C56.0702 10.3149 56.0702 10.3149 56.0702 10.3149C56.0702 10.3149 56.0702 10.3149 56.0702 10.3149C56.0702 10.3149 56.0702 10.3149 56.0702 10.3149H56.0702C56.0702 10.3149 56.0702 10.3149 56.0702 10.3149C56.0702 10.3149 56.0702 10.3149 56.0702 10.3149H56.0702C56.0702 10.3149 56.0702 10.3149 56.0702 10.3149C56.0702 10.3149 56.0702 10.3149 56.0702 10.3149H56.0702C56.0702 10.3149 56.0702 10.3149 56.0702 10.3149C56.0702 10.3149 56.0702 10.3149 56.0702 10.3149C56.0702 10.3149 56.0702 10.3149 56.0702 10.3149H56.0702C56.0702 10.3149 56.0702 10.3149 56.0702 10.3149C56.0702 10.3149 56.0702 10.3149 56.0702 10.3149H56.0702C56.0702 10.3149 56.0702 10.3149 56.0702 10.3149C56.0702 10.3149 56.0702 10.3149 56.0702 10.3149H56.0702C56.0702 10.3149 56.0702 10.3149 56.0702 10.3149C56.0702 10.3149 56.0702 10.3149 56.0702 10.3149H56.0702H56.0702C56.0702 10.3149 56.0702 10.3149 56.0702 10.3149C56.0702 10.3149 56.0702 10.3149 56.0702 10.3149H56.0702C56.0702 10.3149 56.0702 10.3149 56.0702 10.3149C56.0702 10.3149 56.0702 10.3149 56.0702 10.3149C56.0702 10.3149 56.0702 10.3149 56.0702 10.3149C56.0702 10.3149 56.0702 10.3149 56.0702 10.3149H56.0702C56.0702 10.3149 56.0702 10.3149 56.0702 10.3149C56.0702 10.3149 56.0702 10.3149 56.0702 10.3149H56.0702C56.0702 10.3149 56.0702 10.3149 56.0702 10.3149C56.0702 10.3149 56.0702 10.3149 56.0702 10.3149H56.0702C56.0702 10.3149 56.0702 10.3149 56.0702 10.3149H56.0702C56.0702 10.3149 56.0702 10.3149 56.0702 10.3149C56.0702 10.3149 56.0702 10.3149 56.0702 10.3149C56.0702 10.3149 56.0702 10.3149 56.0702 10.3149C56.0702 10.3149 56.0702 10.3149 56.0702 10.3149H56.0702C56.0702 10.3149 56.0702 10.3149 56.0702 10.3149H56.0702C56.0702 10.3149 56.0702 10.3149 56.0702 10.3149H56.0702C56.0701 10.3149 56.0701 10.3149 56.0701 10.3149H56.0701C56.0701 10.3149 56.0701 10.3149 56.0701 10.3149C56.0701 10.3149 56.0701 10.3149 56.0701 10.3149H56.0701C56.0701 10.3149 56.0701 10.3149 56.0701 10.3149H56.0701C56.0701 10.3149 56.0701 10.3149 56.0701 10.3149C56.0701 10.3149 56.0701 10.3149 56.0701 10.3149H56.0701C56.0701 10.3149 56.0701 10.3149 56.0701 10.3149C56.0701 10.3149 56.0701 10.3149 56.0701 10.3149C56.0701 10.3149 56.0701 10.3149 56.0701 10.3149H56.0701C56.0701 10.3149 56.0701 10.3149 56.0701 10.3149C56.0701 10.3149 56.0701 10.3149 56.0701 10.3149C56.0701 10.3149 56.0701 10.3149 56.0701 10.3149C56.0701 10.3149 56.0701 10.3149 56.0701 10.3149C56.0701 10.3149 56.0701 10.3149 56.0701 10.3149C56.0701 10.3149 56.0701 10.3149 56.0701 10.3149C56.0701 10.3149 56.0701 10.3149 56.0701 10.3149C56.0701 10.3149 56.0701 10.3149 56.0701 10.3149H56.0701C56.0701 10.3149 56.0701 10.3149 56.0701 10.3149C56.0701 10.3149 56.0701 10.3149 56.0701 10.3149H56.0701C56.0701 10.3149 56.0701 10.3149 56.0701 10.3149C56.0701 10.3149 56.0701 10.3149 56.0701 10.3149C56.0701 10.3149 56.0701 10.3149 56.0701 10.3149C56.0701 10.3149 56.0701 10.3149 56.0701 10.3149C56.0701 10.3149 56.0701 10.3149 56.0701 10.3149C56.0701 10.3149 56.0701 10.3149 56.0701 10.3149C56.0701 10.3149 56.0701 10.3149 56.0701 10.3149C56.0701 10.3149 56.0701 10.3149 56.0701 10.3149H56.0701C56.0701 11.3149 56.0701 12.3149 56.0701 12.3149H56.0701C56.0701 12.3149 56.0701 12.3149 56.0701 12.3149C56.0701 12.3149 56.0701 12.3149 56.0701 12.3149C56.0701 12.3149 56.0701 12.3149 56.0701 12.3149C56.0701 12.3149 56.0701 12.3149 56.0701 12.3149C56.0701 12.3149 56.0701 12.3149 56.0701 12.3149H56.0701C56.0701 12.3149 56.0701 12.3149 56.0701 12.3149C56.0701 12.3149 56.0701 12.3149 56.0701 12.3149H56.0701H56.0701C56.0701 12.3149 56.0701 12.3149 56.0701 12.3149C56.0701 12.3149 56.0701 12.3149 56.0701 12.3149C56.0701 12.3149 56.0701 12.3149 56.0701 12.3149H56.0701C56.0701 12.3149 56.0701 12.3149 56.0701 12.3149C56.0701 12.3149 56.0701 12.3149 56.0701 12.3149C56.0701 12.3149 56.0701 12.3149 56.0701 12.3149C56.0701 12.3149 56.0701 12.3149 56.0701 12.3149C56.0701 12.3149 56.0701 12.3149 56.0701 12.3149H56.0701C56.0701 12.3149 56.0701 12.3149 56.0701 12.3149C56.0701 12.3149 56.0701 12.3149 56.0701 12.3149H56.0701C56.0701 12.3149 56.0701 12.3149 56.0701 12.3149C56.0701 12.3149 56.0701 12.3149 56.0701 12.3149C56.0701 12.3149 56.0701 12.3149 56.0701 12.3149H56.0701H56.0701H56.0701C56.0701 12.3149 56.0701 12.3149 56.0701 12.3149C56.0701 12.3149 56.0701 12.3149 56.0701 12.3149C56.0701 12.3149 56.0701 12.3149 56.0701 12.3149C56.0701 12.3149 56.0701 12.3149 56.0701 12.3149C56.0701 12.3149 56.0701 12.3149 56.0702 12.3149C56.0702 12.3149 56.0702 12.3149 56.0702 12.3149C56.0702 12.3149 56.0702 12.3149 56.0702 12.3149C56.0702 12.3149 56.0702 12.3149 56.0702 12.3149C56.0702 12.3149 56.0702 12.3149 56.0702 12.3149C56.0702 12.3149 56.0702 12.3149 56.0702 12.3149C56.0702 12.3149 56.0702 12.3149 56.0702 12.3149C56.0702 12.3149 56.0702 12.3149 56.0702 12.3149H56.0702H56.0702H56.0702C56.0702 12.3149 56.0702 12.3149 56.0702 12.3149C56.0702 12.3149 56.0702 12.3149 56.0702 12.3149C56.0702 12.3149 56.0702 12.3149 56.0702 12.3149H56.0702H56.0702C56.0702 12.3149 56.0702 12.3149 56.0702 12.3149C56.0702 12.3149 56.0702 12.3149 56.0702 12.3149C56.0702 12.3149 56.0702 12.3149 56.0702 12.3149H56.0702C56.0702 12.3149 56.0702 12.3149 56.0702 12.3149C56.0702 12.3149 56.0702 12.3149 56.0702 12.3149H56.0702C56.0702 12.3149 56.0702 12.3149 56.0702 12.3149C56.0702 12.3149 56.0702 12.3149 56.0702 12.3149H56.0702C56.0702 12.3149 56.0702 12.3149 56.0702 12.3149H56.0702C56.0702 12.3149 56.0702 12.3149 56.0702 12.3149H56.0702C56.0702 12.3149 56.0702 12.3149 56.0702 12.3149H56.0702C56.0702 12.3149 56.0702 12.3149 56.0702 12.3149H56.0702C56.0702 12.3149 56.0702 12.3149 56.0702 12.3149H56.0702C56.0702 12.3149 56.0702 12.3149 56.0702 12.3149H56.0702C56.0702 12.3149 56.0702 12.3149 56.0702 12.3149C56.0702 12.3149 56.0702 12.3149 56.0702 12.3149H56.0702C56.0702 12.3149 56.0702 12.3149 56.0702 12.3149C56.0702 12.3149 56.0702 12.3149 56.0702 12.3149H56.0702C56.0702 12.3149 56.0702 12.3149 56.0702 12.3149C56.0702 12.3149 56.0702 12.3149 56.0702 12.3149C56.0702 12.3149 56.0702 12.3149 56.0702 12.3149H56.0702C56.0702 12.3149 56.0702 12.3149 56.0702 12.3149C56.0702 12.3149 56.0702 12.3149 56.0702 12.3149C56.0702 12.3149 56.0702 12.3149 56.0702 12.3149C56.0702 12.3149 56.0702 12.3149 56.0702 12.3149C56.0702 12.3149 56.0702 12.3149 56.0702 12.3149C56.0702 12.3149 56.0702 12.3149 56.0702 12.3149H56.0702C56.0702 12.3149 56.0702 12.3149 56.0702 12.3149C56.0702 12.3149 56.0702 12.3149 56.0702 12.3149C56.0702 12.3149 56.0702 12.3149 56.0702 12.3149V10.3149ZM56.0702 10.3149H56.068V12.3149H56.0702V10.3149ZM56.0684 10.3149C55.3983 10.3147 54.7394 10.1423 54.1536 9.81458L53.1772 11.5601C54.0601 12.0539 55.0547 12.3145 56.0676 12.3149L56.0684 10.3149ZM53.4057 9.72164L50.7403 10.4385L51.2597 12.3699L53.9251 11.653L53.4057 9.72164ZM53.2696 10.6087L53.4223 10.7014L54.4608 8.99219L54.3081 8.89942L53.2696 10.6087ZM53.4216 10.701C54.2194 11.1867 55.1346 11.4437 56.068 11.4442L56.0691 9.44424C55.5025 9.44392 54.9466 9.28793 54.4615 8.99263L53.4216 10.701ZM56.0686 11.4442H56.0702V9.44424H56.0686V11.4442ZM56.0702 11.4442C58.9495 11.4442 61.2479 9.05013 61.2491 6.15949L59.2491 6.15866C59.2484 7.99349 57.7974 9.44424 56.0702 9.44424V11.4442ZM61.2491 6.15943C61.2496 4.75735 60.7162 3.42904 59.7426 2.42964L58.31 3.82526C58.9144 4.44568 59.2494 5.27077 59.2491 6.15872L61.2491 6.15943ZM59.7425 2.42961C58.7681 1.42946 57.462 0.871381 56.0722 0.870762L56.0713 2.87076C56.9141 2.87114 57.7063 3.20562 58.31 3.82529L59.7425 2.42961ZM56.0717 0.870762C53.1909 0.870762 50.8922 3.26426 50.8911 6.15522L52.8911 6.15597C52.8918 4.32161 54.3423 2.87076 56.0717 2.87076V0.870762ZM50.8911 6.15519C50.8907 7.14717 51.1614 8.11703 51.6775 8.95875L53.3825 7.91326C53.0619 7.39035 52.8909 6.78334 52.8911 6.15599L50.8911 6.15519ZM51.6775 8.9587L51.7769 9.12086L53.482 8.07548L53.3825 7.91331L51.6775 8.9587ZM51.6633 8.34015L51.241 9.92133L53.1733 10.4374L53.5956 8.85619L51.6633 8.34015ZM52.4668 11.145L54.0485 10.7197L53.5292 8.78835L51.9475 9.21366L52.4668 11.145Z" fill="#F67B10" mask="url(#path-4-inside-1_220_1262)"/>
<path fill-rule="evenodd" clip-rule="evenodd" d="M54.8139 4.00009C54.7198 3.78552 54.6207 3.78121 54.5311 3.77748C54.4579 3.77425 54.3741 3.77442 54.2904 3.77442C54.2067 3.77442 54.0705 3.80675 53.9554 3.93567C53.8403 4.06459 53.5156 4.37631 53.5156 5.01029C53.5156 5.64436 53.9659 6.25695 54.0287 6.34301C54.0915 6.42898 54.8978 7.77156 56.1747 8.28807C57.236 8.71735 57.4519 8.63196 57.6823 8.61049C57.9126 8.58901 58.4255 8.29876 58.5302 7.99789C58.635 7.69703 58.635 7.43919 58.6035 7.38522C58.5721 7.33158 58.4883 7.29933 58.3627 7.23491C58.2371 7.17049 57.6195 6.85868 57.5043 6.81574C57.3891 6.77271 57.3053 6.75132 57.2216 6.88032C57.1378 7.00916 56.8972 7.29933 56.8239 7.38522C56.7506 7.47136 56.6773 7.48214 56.5516 7.41764C56.426 7.35305 56.0214 7.21709 55.5414 6.7781C55.1679 6.43661 54.9157 6.01478 54.8424 5.88578C54.7692 5.75695 54.8412 5.69327 54.8976 5.62289C54.9992 5.49612 55.1697 5.26822 55.2116 5.18232C55.2535 5.09627 55.2325 5.02107 55.2012 4.95657C55.1697 4.89215 54.9255 4.25494 54.8139 4.00009Z" fill="#F67B10"/>
</svg>
