<svg width="2096" height="1490" viewBox="0 0 2096 1490" fill="none" xmlns="http://www.w3.org/2000/svg">
<g clip-path="url(#clip0_3367_122)">
<path d="M1375.84 1155.09C1433.07 1071.04 1887.99 928.981 2101.48 876C2117.38 1071.94 2147.59 1478.04 2141.23 1534.94C2133.28 1606.06 1973.73 1632.46 1707.43 1608.21C1441.14 1583.97 1304.3 1260.16 1375.84 1155.09Z" fill="#F8F8F8" stroke="white" stroke-opacity="0.2" stroke-width="1.07547" stroke-linecap="round" stroke-linejoin="round"/>
<path d="M263.606 1797.96C152.973 1768.95 -152.277 1361.53 -280.591 1165.73C-71.9864 1083.95 361.272 917.216 425.47 904.453C505.717 888.499 587.21 1039.26 648.672 1313.86C710.133 1588.46 401.897 1834.22 263.606 1797.96Z" fill="#F8F8F8" stroke="white" stroke-opacity="0.2" stroke-width="1.23442" stroke-linecap="round" stroke-linejoin="round"/>
<path d="M609.718 478.835C502.214 477.669 7.91276 147.852 -214.689 -15.2707C-94.397 -149.225 157.314 -424.348 201.823 -453.199C257.459 -489.263 414.783 -359.314 630.59 -100.798C846.397 157.718 744.097 480.293 609.718 478.835Z" stroke="#EBEBEF" stroke-width="2.92558" stroke-linecap="round" stroke-linejoin="round"/>
</g>
<defs>
<clipPath id="clip0_3367_122">
<rect width="2096" height="1490" fill="white"/>
</clipPath>
</defs>
</svg>
