<svg width="2068" height="1524" viewBox="0 0 2068 1524" fill="none" xmlns="http://www.w3.org/2000/svg">
<path d="M1353.68 790.506C1406.9 712.354 1829.89 580.263 2028.4 531C2043.18 713.189 2071.27 1090.79 2065.35 1143.7C2057.96 1209.82 1909.61 1234.37 1662 1211.83C1414.39 1189.28 1287.16 888.197 1353.68 790.506Z" stroke="#EBEBEF" stroke-width="2" stroke-linecap="round" stroke-linejoin="round"/>
<path d="M451.716 1431.88C362.092 1408.37 114.81 1078.32 10.8626 919.706C179.853 853.462 530.835 718.389 582.841 708.05C647.849 695.125 713.867 817.26 763.657 1039.71C813.447 1262.16 563.745 1461.26 451.716 1431.88Z" stroke="#EBEBEF" stroke-width="2" stroke-linecap="round" stroke-linejoin="round"/>
<path d="M837.698 671.89C764.206 671.093 426.289 445.622 274.113 334.107C356.348 242.533 528.423 54.4523 558.851 34.729C596.885 10.0749 704.436 98.911 851.967 275.639C999.498 452.367 929.563 672.887 837.698 671.89Z" stroke="#EBEBEF" stroke-width="2" stroke-linecap="round" stroke-linejoin="round"/>
</svg>
